<?xml version="1.0" encoding="utf-8"?>
<!-- Generator: Adobe Illustrator 25.2.0, SVG Export Plug-In . SVG Version: 6.00 Build 0)  -->
<svg version="1.1" id="Layer_1" xmlns="http://www.w3.org/2000/svg" xmlns:xlink="http://www.w3.org/1999/xlink" x="0px" y="0px"
	 viewBox="0 0 242.7 119.9" style="enable-background:new 0 0 242.7 119.9;" xml:space="preserve">
<style type="text/css">
	.st0{fill-rule:evenodd;clip-rule:evenodd;fill:#8F85F5;}
	.st1{fill:none;stroke:#FFFFFF;stroke-width:8.392;stroke-miterlimit:2.9786;}
	.st2{fill:none;stroke:#FFFFFF;stroke-width:8.3919;stroke-miterlimit:2.9786;}
	.st3{fill:#2E65F1;}
	.st4{fill:#5271FF;}
</style>
<g>
	<path class="st0" d="M133.3,11.3c3.1-2.9,5.1-6.9,5.4-11.3l0.1,0c0.4,5.1,3,9.6,6.9,12.5c22.2,2.6,41.3,7.8,55.1,14.8
		c-14.7-4.9-32.7-8.3-52.6-9.6c-5.2,2.7-8.9,8-9.4,14.1h-0.1c-0.5-6.8-5-12.5-11.1-14.7h-0.2C65.6,17.6,15.5,37.7,15.5,61.9
		c0,10,8.5,19.2,22.9,26.5C14.9,80.5,0,68.8,0,55.6C0,15.8,102.2,9.2,133.3,11.3z M103.8,88.2L103.8,88.2c0.5,5.2,3.2,9.7,7.2,12.6
		c24.5,0.1,115.8-8,115.8-44.9c0-10-8.5-19.2-22.9-26.5c23.5,7.9,38.4,19.6,38.4,32.9c0,39.4-100.7,46.2-130.5,44.4
		c-4.4,2.9-7.5,7.7-7.9,13.3h-0.1c-0.6-7.8-6.3-14-13.8-15.4c-16.4-2.4-33.7-6.5-48.5-14c15.5,5.2,34.7,8.7,55.9,9.8
		C101,97.4,103.4,93.1,103.8,88.2"/>
</g>
<path class="st1" d="M19.2,75.4l17.4-2.3c0.5-0.1,1-0.6,0.9-1.2l-2.3-17.7c-0.1-0.6-0.6-1-1.2-0.9l-10.3,1.4c-0.5,0.1-1,0.6-0.9,1.2
	l0.8,6.6c0.1,0.6-0.4,1.1-0.9,1.2c-0.6,0.1-1.1-0.3-1.2-0.9L20.4,54c-0.1-0.6,0.3-1.1,0.9-1.2l12.4-1.7c0.6-0.1,1-0.6,0.9-1.2
	l-1.2-9c-0.1-0.6-0.6-1-1.2-0.9l-17.4,2.3c-4.9,0.7-8,4.7-7.3,9.6l2.2,16.2C10.3,73,14.3,76.1,19.2,75.4z"/>
<path class="st1" d="M40.1,72.6l31.1-2.8c0.6-0.1,1-0.5,0.9-1.1l-0.7-7.9c-0.1-0.6-0.6-1-1.2-0.9l-18.7,1.7
	c-0.6,0.1-1.1-0.4-1.1-0.9c-0.1-0.6,0.4-1.1,0.9-1.1l17.1-1.6c0.6-0.1,1-0.6,0.9-1.1l-0.6-7.1c-0.1-0.6-0.6-1-1.2-0.9l-17,1.6
	c-0.6,0.1-1.1-0.4-1.1-0.9c-0.1-0.6,0.4-1.1,0.9-1.1l18.7-1.7c0.6-0.1,1-0.5,0.9-1.1l-0.7-7.9c-0.1-0.6-0.6-1-1.1-1l-31.2,2.8
	c-0.6,0.1-1,0.6-0.9,1.1L39,71.7C39,72.3,39.6,72.7,40.1,72.6z"/>
<path class="st1" d="M74.7,69.5l10.4-0.4c0.6,0,1-0.5,1-1.1l-0.8-18.5c0-0.6,0.4-1.1,1-1.1c0.6,0,1.1,0.4,1.1,1L88.1,68
	c0,0.6,0.5,1,1.1,1l22.9-0.9c0.6,0,1-0.5,1-1.1l-1.3-31.2c0-0.6-0.5-1-1.1-1l-10.4,0.4c-0.6,0-1,0.5-1,1.1l0.8,18.8
	c0,0.6-0.4,1.1-1,1.1c-0.6,0-1.1-0.4-1.1-1l-0.8-18.9c0-0.7-0.5-1-1.1-1l-22.9,0.9c-0.6,0-1,0.5-1,1.1l1.3,31.2
	C73.6,69.1,74.1,69.5,74.7,69.5z"/>
<path class="st2" d="M115.6,68l31.3,0.3c0.6,0,1-0.4,1-1l0.1-7.9c0-0.6-0.5-1-1.1-1.1l-18.8-0.2c-0.6,0-1-0.5-1-1c0-0.6,0.5-1,1.1-1
	l17.1,0.2c0.6,0,1-0.4,1-1l0.1-7.1c0-0.6-0.5-1-1.1-1l-17.1-0.2c-0.6,0-1-0.5-1-1.1c0-0.6,0.5-1,1.1-1L147,45c0.6,0,1-0.4,1-1
	l0.1-7.9c0-0.6-0.4-1.1-1-1.1l-31.3-0.3c-0.6,0-1.1,0.4-1.1,1L114.5,67C114.5,67.5,115,68,115.6,68z"/>
<path class="st1" d="M150.3,68.4l10.4,0.6c0.6,0,1.1-0.4,1.1-1l0.5-9.8c0-0.6,0.5-1,1.1-1l6.2,0.3c0.6,0,1,0.5,1,1.1l-0.5,9.8
	c0,0.6,0.4,1.1,1,1.1l10.4,0.6c0.6,0,1.1-0.4,1.1-1l0.6-10.3c0.1-2.5-1.6-4.3-4-4.5l-0.4,0c-0.6,0-1-0.5-1-1.1c0-0.6,0.5-1,1.1-1
	l0.4,0c2.5,0.1,4.3-1.6,4.5-4l0.3-4.6c0.2-3.9-2.5-6.9-6.4-7.2l-25.5-1.4c-0.6,0-1.1,0.4-1.1,1l-1.7,31.2
	C149.2,67.9,149.7,68.4,150.3,68.4z M163.9,47.7c-0.6,0-1-0.5-1-1.1c0-0.6,0.5-1,1.1-1l6.2,0.3c0.6,0,1,0.5,1,1.1c0,0.6-0.5,1-1.1,1
	L163.9,47.7z"/>
<path class="st1" d="M185,70.5l10.3,1c0.6,0.1,1.1-0.4,1.1-0.9l0.6-5.8c0.1-0.6,0.6-1,1.1-0.9c0.6,0.1,1,0.6,0.9,1.2l-0.6,5.8
	c-0.1,0.6,0.4,1.1,1,1.1l10.3,1c0.6,0.1,1.1-0.4,1.1-0.9l2.3-23.7c0.5-4.9-2.7-8.8-7.6-9.3l-10-1c-4.9-0.5-8.8,2.7-9.3,7.6L184,69.4
	C184,69.9,184.4,70.4,185,70.5z M199.2,53.9c-0.6-0.1-1-0.6-0.9-1.1l0.3-3.3c0.1-0.6,0.6-1,1.1-0.9c0.6,0.1,1,0.6,0.9,1.1l-0.3,3.3
	C200.2,53.5,199.7,53.9,199.2,53.9z"/>
<path class="st1" d="M213.4,73.4l22.7,3.1c0.6,0.1,1.1-0.3,1.2-0.9l1.2-9.1c0.1-0.6-0.3-1.1-0.9-1.2l-10.3-1.4
	c-0.6-0.1-1-0.6-0.9-1.2l2.7-19.8c0.1-0.6-0.3-1.1-0.9-1.2l-10.3-1.4c-0.6-0.1-1.1,0.3-1.2,0.9l-4.2,31
	C212.4,72.8,212.8,73.3,213.4,73.4z"/>
<g>
	<g transform="translate(103.91979, 107.04935)">
		<g>
			<path class="st3" d="M-84.7-31.6l17.4-2.3c0.5-0.1,1-0.6,0.9-1.2l-2.3-17.7c-0.1-0.6-0.6-1-1.2-0.9l-10.3,1.4
				c-0.5,0.1-1,0.6-0.9,1.2l0.8,6.6c0.1,0.6-0.4,1.1-0.9,1.2c-0.6,0.1-1.1-0.3-1.2-0.9l-1.2-8.7c-0.1-0.6,0.3-1.1,0.9-1.2l12.4-1.7
				c0.6-0.1,1-0.6,0.9-1.2l-1.2-9.1c-0.1-0.6-0.6-1-1.2-0.9l-17.4,2.3c-4.9,0.7-8,4.7-7.3,9.6l2.2,16.2C-93.6-34-89.6-31-84.7-31.6z
				"/>
		</g>
	</g>
</g>
<g>
	<g transform="translate(125.142853, 104.153954)">
		<g>
			<path class="st3" d="M-85-31.5l31.1-2.8c0.6-0.1,1-0.6,0.9-1.1l-0.7-7.9c-0.1-0.6-0.6-1-1.2-0.9l-18.7,1.7
				c-0.6,0.1-1.1-0.4-1.1-0.9c-0.1-0.6,0.4-1.1,0.9-1.1l17.1-1.6c0.6-0.1,1-0.6,0.9-1.1l-0.6-7.1c-0.1-0.6-0.6-1-1.2-0.9l-17,1.5
				c-0.6,0.1-1.1-0.4-1.1-0.9c-0.1-0.6,0.4-1.1,0.9-1.1l18.7-1.7c0.6-0.1,1-0.6,0.9-1.1l-0.7-7.9c-0.1-0.6-0.6-1-1.1-0.9l-31.2,2.8
				c-0.6,0.1-1,0.6-0.9,1.1l2.8,31.1C-86.1-31.9-85.6-31.5-85-31.5z"/>
		</g>
	</g>
</g>
<g>
	<g transform="translate(151.0448, 101.722736)">
		<g>
			<path class="st3" d="M-76.4-32.2l10.4-0.4c0.6,0,1-0.5,1-1.1l-0.8-18.5c0-0.6,0.4-1.1,1-1.1c0.6,0,1.1,0.4,1.1,1l0.8,18.6
				c0,0.6,0.5,1,1.1,1l22.9-0.9c0.6,0,1-0.5,1-1.1l-1.3-31.2c0-0.6-0.5-1-1.1-1l-10.4,0.4c-0.6,0-1,0.5-1,1.1l0.8,18.8
				c0,0.6-0.4,1.1-1,1.1c-0.6,0-1.1-0.4-1.1-1l-0.8-18.9c0-0.7-0.5-1-1.1-1l-22.9,0.9c-0.6,0-1,0.5-1,1.1l1.3,31.2
				C-77.5-32.6-76.9-32.2-76.4-32.2z"/>
		</g>
	</g>
</g>
<g>
	<g transform="translate(181.69267, 100.520897)">
		<g>
			<path class="st3" d="M-66.1-32.5l31.3,0.3c0.6,0,1-0.4,1.1-1l0.1-7.9c0-0.6-0.5-1-1.1-1.1l-18.8-0.2c-0.6,0-1-0.5-1-1.1
				c0-0.6,0.5-1,1.1-1l17.1,0.2c0.6,0,1-0.4,1.1-1l0.1-7.1c0-0.6-0.5-1-1.1-1.1l-17.1-0.2c-0.6,0-1-0.5-1-1.1c0-0.6,0.5-1,1.1-1
				l18.8,0.2c0.6,0,1-0.5,1.1-1l0.1-7.9c0-0.6-0.4-1-1-1.1l-31.3-0.3c-0.6,0-1,0.4-1.1,1l-0.3,31.3C-67.2-33-66.7-32.5-66.1-32.5z"
				/>
		</g>
	</g>
</g>
<g>
	<g transform="translate(207.752975, 100.757133)">
		<g>
			<path class="st3" d="M-57.5-32.3l10.4,0.6c0.6,0,1.1-0.4,1.1-1l0.5-9.7c0-0.6,0.5-1,1.1-1l6.2,0.3c0.6,0,1,0.5,1,1.1l-0.5,9.8
				c0,0.6,0.4,1.1,1,1.1l10.4,0.6c0.6,0,1.1-0.4,1.1-1l0.6-10.3c0.1-2.5-1.6-4.3-4-4.5l-0.4,0c-0.6,0-1-0.5-1-1.1c0-0.6,0.5-1,1.1-1
				l0.4,0c2.5,0.1,4.3-1.6,4.5-4l0.3-4.6c0.2-3.9-2.5-6.9-6.4-7.2l-25.5-1.4c-0.6,0-1.1,0.4-1.1,1l-1.7,31.2
				C-58.5-32.9-58.1-32.4-57.5-32.3z M-43.8-53.1c-0.6,0-1-0.5-1-1.1c0-0.6,0.5-1,1.1-1l6.2,0.3c0.6,0,1,0.5,1,1.1
				c0,0.6-0.5,1-1.1,1L-43.8-53.1z"/>
		</g>
	</g>
</g>
<g>
	<g transform="translate(233.787319, 102.245205)">
		<g>
			<path class="st3" d="M-48.8-31.7l10.3,1c0.6,0.1,1.1-0.4,1.1-0.9l0.6-5.8c0.1-0.6,0.6-1,1.1-0.9c0.6,0.1,1,0.6,0.9,1.2l-0.6,5.8
				c-0.1,0.6,0.4,1.1,1,1.1l10.3,1c0.6,0.1,1.1-0.4,1.1-0.9l2.3-23.7c0.5-4.9-2.7-8.8-7.6-9.3l-10-1c-4.9-0.5-8.8,2.7-9.3,7.6
				l-2.3,23.7C-49.8-32.3-49.4-31.8-48.8-31.7z M-34.6-48.4c-0.6-0.1-1-0.6-0.9-1.1l0.3-3.3c0.1-0.6,0.6-1,1.1-0.9
				c0.6,0.1,1,0.6,0.9,1.1l-0.3,3.3C-33.6-48.7-34.1-48.3-34.6-48.4z"/>
		</g>
	</g>
</g>
<g>
	<g transform="translate(255.135758, 104.34247)">
		<g>
			<path class="st3" d="M-41.7-31l22.7,3.1c0.6,0.1,1.1-0.3,1.2-0.9l1.2-9.1c0.1-0.6-0.3-1.1-0.9-1.2l-10.3-1.4
				c-0.6-0.1-1-0.6-0.9-1.2l2.7-19.8c0.1-0.6-0.3-1.1-0.9-1.2L-37.2-64c-0.6-0.1-1.1,0.3-1.2,0.9l-4.2,31
				C-42.7-31.6-42.3-31.1-41.7-31z"/>
		</g>
	</g>
</g>
<g>
	<g transform="translate(170.747436, 109.487056)">
		<g>
			<path class="st4" d="M-67.7-29.5c-0.9,0-1.6-0.1-2.1-0.2c-0.5-0.2-0.9-0.4-1.2-0.8c-0.3-0.3-0.5-0.7-0.6-1.1l2.9-0.1
				c0.2,0.3,0.5,0.4,1,0.4c0.5,0,0.8-0.2,1-0.5c0,0,0-0.1,0-0.1c0-0.1-0.1-0.1-0.3-0.2c-0.2,0-0.5-0.1-0.9-0.1c-0.5,0-1.1,0-1.7-0.1
				c-1.3-0.2-2-0.7-2-1.5c0-0.1,0-0.2,0-0.2c0.1-0.4,0.3-0.8,0.5-1.1c0.3-0.3,0.7-0.6,1.2-0.8c0.5-0.2,1.2-0.3,2.1-0.3
				c0.9,0,1.6,0.1,2.1,0.2c0.5,0.2,0.9,0.4,1.2,0.8c0.3,0.3,0.5,0.7,0.6,1.1l-2.9,0.1c-0.2-0.3-0.6-0.4-1-0.4c-0.5,0-0.8,0.2-1,0.5
				c0,0,0,0,0,0.1c0,0.1,0.1,0.1,0.3,0.1c0.2,0,0.5,0.1,0.9,0.1c0.4,0,0.8,0,1.3,0.1c0.5,0,0.9,0.1,1.3,0.2c0.4,0.1,0.7,0.3,0.9,0.6
				c0.2,0.2,0.3,0.4,0.3,0.8c0,0.1,0,0.2,0,0.3c-0.1,0.4-0.3,0.8-0.5,1.1c-0.3,0.3-0.7,0.6-1.2,0.8C-66.1-29.6-66.8-29.5-67.7-29.5z
				"/>
		</g>
	</g>
</g>
<g>
	<g transform="translate(177.094338, 109.350939)">
		<g>
			<path class="st4" d="M-64.3-29.6l-2.7,0l-0.1-4.8l-2.5,0l0-1.6l7.7-0.1l0,1.6l-2.5,0L-64.3-29.6z"/>
		</g>
	</g>
</g>
<g>
	<g transform="translate(183.266916, 109.276)">
		<g>
			<path class="st4" d="M-62.9-29.5c-1.6,0-2.8-0.3-3.5-1c-0.7-0.6-1-1.4-1-2.4c0-1,0.3-1.8,1-2.4c0.8-0.7,1.9-1,3.5-1
				s2.7,0.3,3.5,1c0.7,0.6,1,1.4,1,2.4c0,1-0.3,1.8-1,2.4C-60.2-29.8-61.3-29.5-62.9-29.5z M-62.9-31.2c0.6,0,1.1-0.2,1.4-0.6
				c0.2-0.3,0.4-0.6,0.4-1.1c0-0.4-0.1-0.8-0.4-1c-0.3-0.4-0.8-0.6-1.4-0.6c-0.7,0-1.1,0.2-1.4,0.6c-0.2,0.3-0.4,0.6-0.4,1
				c0,0.4,0.1,0.8,0.4,1.1C-64-31.4-63.5-31.2-62.9-31.2z"/>
		</g>
	</g>
</g>
<g>
	<g transform="translate(190.524758, 109.267542)">
		<g>
			<path class="st4" d="M-55.9-29.5l-2.5,0c-0.1-0.2-0.2-0.4-0.2-0.6c0-0.2-0.1-0.4-0.2-0.6c-0.1-0.2-0.2-0.3-0.4-0.5
				c-0.2-0.1-0.5-0.2-0.9-0.2l-1.8,0l0,1.9l-2.7,0l0.1-6.4l4.4,0.1c1,0,1.9,0.1,2.5,0.2c0.7,0.2,1.1,0.4,1.4,0.8
				c0.3,0.3,0.4,0.8,0.4,1.3c0,0.4-0.1,0.8-0.3,1.1c-0.2,0.3-0.5,0.5-1,0.7c0.4,0.2,0.7,0.4,0.8,0.6s0.2,0.5,0.2,0.8
				C-56-30.1-56-29.8-55.9-29.5z M-61.9-33h1.5c0.4,0,0.8,0,1,0c0.2,0,0.4-0.1,0.5-0.2c0.1-0.1,0.2-0.1,0.2-0.2
				c0-0.1,0.1-0.2,0.1-0.2c0-0.1,0-0.2-0.1-0.2c0-0.1-0.1-0.2-0.2-0.2c-0.1-0.1-0.3-0.1-0.5-0.2c-0.2,0-0.6-0.1-1-0.1h-1.5V-33z"/>
		</g>
	</g>
</g>
<g>
	<g transform="translate(197.880156, 109.345854)">
		<g>
			<path class="st4" d="M-54.4-29.4l-7.7-0.2L-62-36l7.4,0.1l0,1.6l-4.7-0.1l0,1l4,0.1l0,1.2l-4-0.1l0,1l5,0.1L-54.4-29.4z"/>
		</g>
	</g>
</g>
</svg>
