<?xml version="1.0" encoding="utf-8"?>
<!-- Generator: Adobe Illustrator 25.2.0, SVG Export Plug-In . SVG Version: 6.00 Build 0)  -->
<svg version="1.1" id="Layer_1" xmlns="http://www.w3.org/2000/svg" xmlns:xlink="http://www.w3.org/1999/xlink" x="0px" y="0px"
	 viewBox="0 0 470.86 65.62" style="enable-background:new 0 0 470.86 65.62;" xml:space="preserve">
<path d="M26.88,60.23c-5.22,0-10.44,0-15.66,0c-2.23,0-3.34-1.12-3.31-3.38c0.03-2.29,0.15-4.59,0.12-6.88
	c-0.01-0.52-0.35-1.2-0.76-1.53c-1.45-1.16-3.01-2.18-4.49-3.29c-2.32-1.74-3.19-4.1-2.6-6.9C2.08,29.26,4.04,20.28,6,11.31
	c0.69-3.16,2.46-5.52,5.33-7.02c2.06-1.08,4.1-2.24,6.26-3.08c1.63-0.63,3.42-1.1,5.15-1.15c3.47-0.12,6.95,0.02,10.42,0.21
	c1.07,0.06,2.15,0.51,3.14,0.96c2.08,0.95,4.12,2,6.14,3.06c2.86,1.5,4.64,3.87,5.33,7.02c1.95,8.98,3.92,17.96,5.82,26.95
	c0.59,2.8-0.28,5.16-2.59,6.9c-1.48,1.12-3.05,2.13-4.49,3.29c-0.41,0.33-0.76,1.01-0.76,1.53c-0.03,2.29,0.09,4.58,0.12,6.88
	c0.03,2.25-1.08,3.37-3.31,3.37C37.32,60.23,32.1,60.23,26.88,60.23z M37.5,3.92c-1.92,4.69-5.07,7.6-10.1,7.79
	c-5.55,0.22-9.09-2.74-11.16-7.77c-1.6,0.82-3.09,1.61-4.61,2.36c-0.72,0.36-0.97,0.88-0.97,1.69c0,2.45-0.05,4.9-0.19,7.35
	c-0.02,0.39-0.59,0.75-0.9,1.13c-0.32-0.38-0.73-0.71-0.93-1.15c-0.15-0.33-0.02-0.78-0.02-1.17c0-1.35,0-2.69,0-4.26
	c-0.21,0.3-0.31,0.38-0.33,0.47c-0.83,3.61-1.67,7.22-2.47,10.83c-0.04,0.18,0.09,0.48,0.24,0.59c0.73,0.56,1.49,1.09,2.52,1.82
	c0-1.53-0.07-2.75,0.04-3.95c0.03-0.38,0.54-0.71,0.83-1.07c0.35,0.35,0.77,0.66,1.01,1.07c0.15,0.27,0.03,0.7,0.02,1.05
	c-0.08,4.51-0.15,9.01-0.23,13.52c-0.01,0.42,0,0.83,0,1.31c2.53,0,4.9,0.01,7.27,0c0.72,0,1.39,0.2,1.23,1
	c-0.08,0.37-0.8,0.84-1.24,0.86c-2.4,0.08-4.81,0.04-7.2,0.04c-0.33,1.16,0.44,0.94,0.97,0.94c10.44,0.01,20.88,0.01,31.32,0
	c0.31,0,0.62-0.04,0.91-0.06c0.29-1.15-0.53-0.87-1.05-0.88c-6.68-0.01-13.37-0.01-20.05-0.01c-0.35,0-0.77,0.08-1.05-0.07
	c-0.3-0.16-0.67-0.56-0.65-0.83c0.03-0.34,0.36-0.75,0.67-0.94c0.26-0.16,0.69-0.06,1.05-0.06c6.6,0,13.21,0,19.81,0
	c0.42,0,0.83,0,1.23,0c0.03-0.3,0.06-0.42,0.05-0.53c-0.15-9.09-0.29-18.19-0.48-27.28c-0.01-0.44-0.38-1.06-0.76-1.28
	C40.76,5.55,39.17,4.78,37.5,3.92z M43.95,48.91c-11.52,0-22.69,0-34.13,0c0,2.6,0,5.12,0,7.64c0,1.58,0.18,1.78,1.76,1.78
	c8.86,0,17.71,0,26.57,0c1.5,0,3.01-0.01,4.51,0c0.9,0.01,1.3-0.42,1.29-1.3C43.94,54.35,43.95,51.67,43.95,48.91z M43.65,40.35
	c-11.23,0-22.33,0-33.51,0c0,1.25,0,2.45,0,3.64c11.21,0,22.37,0,33.51,0C43.65,42.75,43.65,41.61,43.65,40.35z M18.06,3.04
	c1.53,4.56,5.23,7.08,9.44,6.78c3.63-0.26,7.15-2.73,8.11-6.86c-0.52-0.19-1.05-0.38-1.62-0.59c-1.33,3.31-3.53,5.22-7.12,5.21
	c-3.64,0-5.81-2.01-7.12-5.24C19.12,2.6,18.62,2.81,18.06,3.04z M8.18,46.71c0-2.42,0.01-4.5-0.02-6.58c0-0.27-0.18-0.62-0.39-0.78
	c-1.63-1.23-3.29-2.41-5.13-3.76c-0.25,1.55-0.56,2.89-0.68,4.25c-0.12,1.38,0.49,2.58,1.54,3.43C4.91,44.4,6.41,45.42,8.18,46.71z
	 M45.59,46.71c1.75-1.27,3.31-2.18,4.57-3.41c0.79-0.76,1.47-1.96,1.57-3.03c0.14-1.47-0.32-2.99-0.55-4.72
	c-1.9,1.38-3.56,2.58-5.2,3.8c-0.19,0.14-0.36,0.45-0.37,0.68C45.58,42.15,45.59,44.26,45.59,46.71z M10.13,46.01
	c-0.35,1.15,0.44,0.92,0.97,0.92c6.25,0.01,12.5,0.01,18.75,0.01c4.31,0,8.62,0,12.93,0c0.61,0,1.29,0.07,0.77-0.92
	C32.44,46.01,21.33,46.01,10.13,46.01z M21.83,1.97c0.87,2.65,2.73,3.82,5.56,3.69c2.17-0.1,3.99-1.54,4.47-3.69
	C28.54,1.97,25.26,1.97,21.83,1.97z M45.27,23.58c0.83-0.6,1.41-1.07,2.04-1.46c0.6-0.37,0.7-0.76,0.54-1.46
	c-0.7-2.99-1.31-6-1.97-9c-0.12-0.55-0.33-1.08-0.5-1.61c-0.04,0.02-0.07,0.04-0.11,0.06C45.27,14.53,45.27,18.94,45.27,23.58z
	 M8.37,33.72c0-1.43,0.02-2.57-0.02-3.71c-0.01-0.27-0.16-0.62-0.37-0.78c-1.06-0.82-2.16-1.58-3.35-2.43
	c-0.26,1.14-0.53,2.16-0.72,3.2c-0.04,0.21,0.1,0.56,0.28,0.69C5.48,31.66,6.8,32.59,8.37,33.72z M49.14,26.8
	c-1.21,0.87-2.3,1.65-3.38,2.44c-0.15,0.11-0.33,0.29-0.34,0.44c-0.03,1.27-0.02,2.54-0.02,4.04c1.54-1.11,2.83-2.01,4.08-2.97
	c0.22-0.17,0.37-0.61,0.33-0.88C49.66,28.9,49.4,27.95,49.14,26.8z M8.05,37.14c0.12-0.11,0.23-0.23,0.35-0.34
	c-0.91-2.16-3.38-2.66-4.99-4.17c-0.08,0.46-0.12,1,0.12,1.19C5,34.97,6.53,36.04,8.05,37.14z M45.35,36.9
	c0.13,0.08,0.26,0.15,0.39,0.23c1.46-1.05,2.93-2.08,4.35-3.19c0.29-0.23,0.34-0.77,0.5-1.16c-0.12-0.06-0.24-0.11-0.36-0.17
	c-1.39,1.01-2.81,1.99-4.16,3.06C45.71,35.94,45.58,36.48,45.35,36.9z M45.36,26.99c2.78-1.43,3.46-2.19,2.93-3.34
	C47.46,24.89,45.37,24.89,45.36,26.99z M5.42,23.58c-0.39,1.18,1.03,2.63,3.03,3.32C8.31,24.95,6.35,24.85,5.42,23.58z"/>
<g>
	<path d="M90.01,21.47c-0.68-1.11-1.6-1.97-2.77-2.56c-1.17-0.6-2.55-0.89-4.14-0.89c-2.94,0-5.25,0.95-6.94,2.86
		c-1.69,1.91-2.53,4.47-2.53,7.69c0,3.61,0.9,6.37,2.71,8.25c1.81,1.89,4.44,2.83,7.89,2.83c4.09,0,7.01-1.85,8.76-5.54H81.25v-8.4
		h21.81v11.32c-0.91,2.22-2.25,4.31-4.02,6.26c-1.77,1.95-4,3.55-6.7,4.8c-2.7,1.25-5.78,1.88-9.24,1.88
		c-4.21,0-7.93-0.9-11.17-2.71c-3.24-1.81-5.74-4.33-7.51-7.57c-1.77-3.24-2.65-6.94-2.65-11.11c0-4.13,0.88-7.81,2.65-11.05
		c1.77-3.24,4.26-5.76,7.48-7.57c3.22-1.81,6.93-2.71,11.14-2.71c5.28,0,9.65,1.27,13.11,3.81c3.46,2.54,5.6,6.02,6.43,10.43H90.01z
		"/>
	<path d="M140.06,35.29h-22.11c0.12,1.83,0.63,3.19,1.52,4.08c0.89,0.89,2.03,1.34,3.43,1.34c1.95,0,3.34-0.87,4.17-2.62h12.45
		c-0.52,2.3-1.52,4.36-3.01,6.17c-1.49,1.81-3.37,3.23-5.63,4.26c-2.26,1.03-4.77,1.55-7.51,1.55c-3.3,0-6.23-0.69-8.79-2.09
		c-2.56-1.39-4.57-3.38-6.02-5.96c-1.45-2.58-2.18-5.62-2.18-9.12c0-3.49,0.72-6.52,2.15-9.09c1.43-2.56,3.43-4.54,5.99-5.93
		c2.56-1.39,5.51-2.09,8.85-2.09c3.3,0,6.22,0.68,8.76,2.03c2.54,1.35,4.53,3.29,5.96,5.81c1.43,2.52,2.14,5.49,2.14,8.91
		C140.24,33.46,140.18,34.38,140.06,35.29z M128.32,29.63c0-1.43-0.48-2.55-1.43-3.37c-0.95-0.81-2.14-1.22-3.57-1.22
		c-1.43,0-2.6,0.39-3.52,1.16c-0.91,0.77-1.51,1.92-1.79,3.43H128.32z"/>
	<path d="M176.05,19.77c2.26,2.56,3.4,6.03,3.4,10.4v19.48h-11.68V31.71c0-1.91-0.5-3.41-1.49-4.5c-0.99-1.09-2.32-1.64-3.99-1.64
		c-1.75,0-3.12,0.55-4.11,1.64c-0.99,1.09-1.49,2.59-1.49,4.5v17.93H145V16.22h11.68v4.77c1.03-1.51,2.42-2.73,4.17-3.66
		c1.75-0.93,3.75-1.4,6.02-1.4C170.72,15.92,173.78,17.21,176.05,19.77z"/>
	<path d="M217.64,35.29h-22.11c0.12,1.83,0.63,3.19,1.52,4.08c0.89,0.89,2.03,1.34,3.43,1.34c1.95,0,3.34-0.87,4.17-2.62h12.45
		c-0.52,2.3-1.52,4.36-3.01,6.17c-1.49,1.81-3.37,3.23-5.63,4.26c-2.26,1.03-4.77,1.55-7.51,1.55c-3.3,0-6.23-0.69-8.79-2.09
		c-2.56-1.39-4.57-3.38-6.02-5.96c-1.45-2.58-2.18-5.62-2.18-9.12c0-3.49,0.72-6.52,2.15-9.09c1.43-2.56,3.43-4.54,5.99-5.93
		c2.56-1.39,5.51-2.09,8.85-2.09c3.3,0,6.22,0.68,8.76,2.03c2.54,1.35,4.53,3.29,5.96,5.81c1.43,2.52,2.14,5.49,2.14,8.91
		C217.81,33.46,217.76,34.38,217.64,35.29z M205.9,29.63c0-1.43-0.48-2.55-1.43-3.37c-0.95-0.81-2.14-1.22-3.57-1.22
		c-1.43,0-2.6,0.39-3.52,1.16c-0.91,0.77-1.51,1.92-1.79,3.43H205.9z"/>
	<path d="M239.03,17.59c1.87-1.11,3.87-1.67,6.02-1.67v12.45h-3.28c-2.54,0-4.43,0.5-5.66,1.49c-1.23,0.99-1.85,2.72-1.85,5.18v14.6
		h-11.68V16.22h11.68v5.9C235.57,20.21,237.16,18.71,239.03,17.59z"/>
	<path d="M249.18,23.85c1.25-2.58,2.96-4.57,5.12-5.96c2.16-1.39,4.58-2.09,7.24-2.09c2.3,0,4.29,0.46,5.96,1.37
		c1.67,0.91,2.96,2.14,3.87,3.69v-4.65h11.68v33.43h-11.68V45c-0.92,1.55-2.22,2.78-3.9,3.69c-1.69,0.91-3.66,1.37-5.93,1.37
		c-2.66,0-5.07-0.69-7.24-2.09c-2.17-1.39-3.87-3.39-5.12-5.99c-1.25-2.6-1.88-5.63-1.88-9.09S247.93,26.43,249.18,23.85z
		 M269.62,27.84c-1.17-1.23-2.61-1.85-4.32-1.85c-1.75,0-3.2,0.61-4.35,1.82c-1.15,1.21-1.73,2.91-1.73,5.09
		c0,2.14,0.57,3.84,1.73,5.09c1.15,1.25,2.6,1.88,4.35,1.88c1.71,0,3.15-0.62,4.32-1.85c1.17-1.23,1.76-2.94,1.76-5.12
		C271.38,30.76,270.79,29.07,269.62,27.84z"/>
	<path d="M301.41,5.56v44.09h-11.68V5.56H301.41z"/>
	<path d="M323.28,46.58c-3.14-2.32-4.83-5.65-5.06-9.98h12.45c0.12,1.47,0.56,2.54,1.31,3.22c0.75,0.68,1.73,1.01,2.92,1.01
		c1.07,0,1.96-0.27,2.65-0.8c0.69-0.54,1.04-1.28,1.04-2.23c0-1.23-0.58-2.18-1.73-2.86c-1.15-0.67-3.02-1.43-5.6-2.26
		c-2.74-0.91-4.96-1.8-6.64-2.65c-1.69-0.85-3.16-2.1-4.41-3.75c-1.25-1.65-1.88-3.8-1.88-6.46c0-2.7,0.68-5.01,2.03-6.94
		c1.35-1.93,3.22-3.39,5.6-4.38c2.38-0.99,5.08-1.49,8.1-1.49c4.89,0,8.79,1.14,11.71,3.43c2.92,2.28,4.48,5.49,4.68,9.62h-12.69
		c-0.04-1.27-0.43-2.22-1.16-2.86c-0.74-0.64-1.68-0.95-2.83-0.95c-0.87,0-1.59,0.26-2.15,0.77c-0.56,0.52-0.83,1.25-0.83,2.2
		c0,0.79,0.31,1.48,0.92,2.06c0.62,0.58,1.38,1.07,2.29,1.49c0.91,0.42,2.26,0.94,4.05,1.58c2.66,0.91,4.86,1.82,6.58,2.71
		c1.73,0.89,3.22,2.14,4.47,3.75c1.25,1.61,1.88,3.64,1.88,6.11c0,2.5-0.63,4.75-1.88,6.73c-1.25,1.99-3.06,3.56-5.42,4.71
		c-2.36,1.15-5.15,1.73-8.37,1.73C330.42,50.07,326.41,48.9,323.28,46.58z"/>
	<path d="M387.47,19.77c2.24,2.56,3.37,6.03,3.37,10.4v19.48h-11.68V31.71c0-1.91-0.5-3.41-1.49-4.5c-0.99-1.09-2.32-1.64-3.99-1.64
		c-1.75,0-3.12,0.55-4.11,1.64c-0.99,1.09-1.49,2.59-1.49,4.5v17.93H356.4V5.56h11.68v15.43c1.03-1.51,2.43-2.73,4.2-3.66
		c1.77-0.93,3.8-1.4,6.11-1.4C382.2,15.92,385.23,17.21,387.47,19.77z"/>
	<path d="M403.86,47.98c-2.64-1.39-4.72-3.38-6.23-5.96c-1.51-2.58-2.26-5.62-2.26-9.12c0-3.46,0.76-6.47,2.29-9.06
		c1.53-2.58,3.61-4.57,6.26-5.96c2.64-1.39,5.63-2.09,8.97-2.09s6.32,0.7,8.97,2.09c2.64,1.39,4.73,3.38,6.26,5.96
		c1.53,2.58,2.29,5.6,2.29,9.06s-0.76,6.49-2.29,9.09c-1.53,2.6-3.63,4.6-6.29,5.99c-2.66,1.39-5.66,2.09-9,2.09
		S406.5,49.37,403.86,47.98z M416.91,38.12c1.09-1.21,1.64-2.95,1.64-5.21s-0.55-3.99-1.64-5.18c-1.09-1.19-2.43-1.79-4.02-1.79
		c-1.59,0-2.92,0.6-3.99,1.79c-1.07,1.19-1.61,2.92-1.61,5.18c0,2.3,0.52,4.05,1.55,5.24c1.03,1.19,2.36,1.79,3.99,1.79
		C414.45,39.94,415.82,39.33,416.91,38.12z"/>
	<path d="M450.72,17.18c1.67-0.91,3.63-1.37,5.9-1.37c2.66,0,5.07,0.7,7.24,2.09c2.16,1.39,3.87,3.38,5.12,5.96
		c1.25,2.58,1.88,5.6,1.88,9.06s-0.63,6.49-1.88,9.09c-1.25,2.6-2.96,4.6-5.12,5.99c-2.17,1.39-4.58,2.09-7.24,2.09
		c-2.26,0-4.22-0.46-5.87-1.37c-1.65-0.91-2.95-2.14-3.9-3.69v20.62h-11.68V16.22h11.68v4.65
		C447.76,19.32,449.05,18.09,450.72,17.18z M457.25,27.81c-1.17-1.21-2.61-1.82-4.32-1.82c-1.71,0-3.15,0.62-4.32,1.85
		c-1.17,1.23-1.76,2.92-1.76,5.06c0,2.19,0.59,3.89,1.76,5.12c1.17,1.23,2.61,1.85,4.32,1.85c1.71,0,3.15-0.63,4.32-1.88
		c1.17-1.25,1.76-2.95,1.76-5.09C459,30.72,458.42,29.02,457.25,27.81z"/>
</g>
</svg>
